<?xml version="1.0" encoding="utf-8"?>
<!-- Generator: Adobe Illustrator 17.0.0, SVG Export Plug-In . SVG Version: 6.00 Build 0)  -->
<!DOCTYPE svg PUBLIC "-//W3C//DTD SVG 1.1//EN" "http://www.w3.org/Graphics/SVG/1.1/DTD/svg11.dtd">
<svg version="1.1" id="Capa_1" xmlns="http://www.w3.org/2000/svg" xmlns:xlink="http://www.w3.org/1999/xlink" x="0px" y="0px"
	 width="141.732px" height="136.134px" viewBox="0 0 141.732 136.134" enable-background="new 0 0 141.732 136.134"
	 xml:space="preserve">
<g>
	<g id="XMLID_1_">
		<g>
			<path d="M103.176,9.507c-7.74,0-14.51,3.31-20.71,10.13c-1.1,1.2-11.86,11.67-11.86,11.67l-10.49-10.66
				c-6.22-7.43-13.37-11.04-21.84-11.04c-1.98,0-4.07,0.2-6.21,0.6c-9.69,1.78-17.52,8.5-20.97,17.98
				c-3.46,9.54-1.75,19.82,4.59,27.47c2.81,3.4,5.65,6.77,8.49,10.15c1.39,1.65,2.78,3.3,4.17,4.95c0,0,41.85,49.89,42.5,50.68
				l13.37-15.93c13.65-16.28,27.31-32.55,40.97-48.81c6-7.13,8.22-14.66,6.79-23.03c-2.08-12.15-8.68-19.64-20.17-22.89
				C108.816,9.937,105.916,9.507,103.176,9.507z M140.356,32.237c1.91,11.2-1.33,21.21-8.66,29.93
				c-20.04,23.85-40.05,47.73-60.08,71.59c-0.22,0.26-0.47,0.5-0.8,0.85c-2.86-3.41-5.66-6.73-8.45-10.05
				c-13.52-16.11-27.03-32.22-40.54-48.33c-4.23-5.05-8.49-10.07-12.69-15.14c-17.57-21.23-5.72-54.25,21.38-59.24
				c14.55-2.69,26.63,2.01,36.12,13.34c1.3,1.56,2.6,3.11,3.9,4.66c0.06,0.08,0.16,0.11,0.39,0.26c1.78-2.1,3.45-4.21,5.25-6.19
				c10.36-11.41,23.21-15.49,37.95-11.32C128.906,6.777,137.766,17.097,140.356,32.237z"/>
		</g>
		<g>
		</g>
	</g>
</g>
</svg>
